<svg id="visual" viewBox="0 0 900 600" width="900" height="600" xmlns="http://www.w3.org/2000/svg" xmlns:xlink="http://www.w3.org/1999/xlink" version="1.1"><rect x="0" y="0" width="900" height="600" fill="#cfe2f3"></rect><defs><linearGradient id="grad1_0" x1="33.3%" y1="100%" x2="100%" y2="0%"><stop offset="20%" stop-color="#cfe2f3" stop-opacity="1"></stop><stop offset="80%" stop-color="#cfe2f3" stop-opacity="1"></stop></linearGradient></defs><defs><linearGradient id="grad2_0" x1="0%" y1="100%" x2="66.7%" y2="0%"><stop offset="20%" stop-color="#cfe2f3" stop-opacity="1"></stop><stop offset="80%" stop-color="#cfe2f3" stop-opacity="1"></stop></linearGradient></defs><g transform="translate(900, 600)"><path d="M-486.7 0C-475.8 -67.6 -464.8 -135.1 -425.9 -176.4C-387.1 -217.7 -320.3 -232.7 -280.7 -280.7C-241.1 -328.8 -228.5 -409.9 -186.3 -449.7C-144 -489.5 -72 -488.1 0 -486.7L0 0Z" fill="#008000"></path></g><g transform="translate(0, 0)"><path d="M486.7 0C441 45 395.3 90 380.6 157.7C366 225.3 382.5 315.7 344.2 344.2C305.9 372.7 212.7 339.5 146.2 352.9C79.7 366.4 39.8 426.6 0 486.7L0 0Z" fill="#008000"></path></g></svg>