<svg id="visual" viewBox="0 0 900 600" width="900" height="600" xmlns="http://www.w3.org/2000/svg" xmlns:xlink="http://www.w3.org/1999/xlink" version="1.1"><rect x="0" y="0" width="900" height="600" fill="#FFFFFF"></rect><path d="M393 0L310 0L310 86L330 86L330 171L387 171L387 257L384 257L384 343L389 343L389 429L326 429L326 514L346 514L346 600L0 600L0 514L0 514L0 429L0 429L0 343L0 343L0 257L0 257L0 171L0 171L0 86L0 86L0 0L0 0Z" fill="#a0cc6c"></path><path d="M264 0L318 0L318 86L280 86L280 171L291 171L291 257L331 257L331 343L307 343L307 429L318 429L318 514L309 514L309 600L0 600L0 514L0 514L0 429L0 429L0 343L0 343L0 257L0 257L0 171L0 171L0 86L0 86L0 0L0 0Z" fill="#87be46"></path><path d="M246 0L243 0L243 86L214 86L214 171L186 171L186 257L213 257L213 343L214 343L214 429L174 429L174 514L199 514L199 600L0 600L0 514L0 514L0 429L0 429L0 343L0 343L0 257L0 257L0 171L0 171L0 86L0 86L0 0L0 0Z" fill="#6fa62c"></path><path d="M72 0L121 0L121 86L106 86L106 171L117 171L117 257L115 257L115 343L132 343L132 429L138 429L138 514L84 514L84 600L0 600L0 514L0 514L0 429L0 429L0 343L0 343L0 257L0 257L0 171L0 171L0 86L0 86L0 0L0 0Z" fill="#598624"></path></svg>