<svg id="visual" viewBox="0 0 900 600" width="900" height="600" xmlns="http://www.w3.org/2000/svg" xmlns:xlink="http://www.w3.org/1999/xlink" version="1.1"><rect x="0" y="0" width="900" height="600" fill="#FFFFFF"></rect><path d="M247 600L387 600L387 514L352 514L352 429L258 429L258 343L263 343L263 257L254 257L254 171L359 171L359 86L325 86L325 0L900 0L900 86L900 86L900 171L900 171L900 257L900 257L900 343L900 343L900 429L900 429L900 514L900 514L900 600L900 600Z" fill="#a0cc6c"></path><path d="M462 600L372 600L372 514L436 514L436 429L418 429L418 343L351 343L351 257L391 257L391 171L373 171L373 86L388 86L388 0L900 0L900 86L900 86L900 171L900 171L900 257L900 257L900 343L900 343L900 429L900 429L900 514L900 514L900 600L900 600Z" fill="#87be46"></path><path d="M492 600L497 600L497 514L545 514L545 429L592 429L592 343L548 343L548 257L546 257L546 171L612 171L612 86L570 86L570 0L900 0L900 86L900 86L900 171L900 171L900 257L900 257L900 343L900 343L900 429L900 429L900 514L900 514L900 600L900 600Z" fill="#6fa62c"></path><path d="M783 600L700 600L700 514L726 514L726 429L707 429L707 343L711 343L711 257L682 257L682 171L673 171L673 86L763 86L763 0L900 0L900 86L900 86L900 171L900 171L900 257L900 257L900 343L900 343L900 429L900 429L900 514L900 514L900 600L900 600Z" fill="#598624"></path></svg>