<svg id="visual" viewBox="0 0 900 600" width="900" height="600" xmlns="http://www.w3.org/2000/svg" xmlns:xlink="http://www.w3.org/1999/xlink" version="1.1"><path d="M0 163L82 163L82 115L164 115L164 163L245 163L245 223L327 223L327 181L409 181L409 229L491 229L491 145L573 145L573 139L655 139L655 151L736 151L736 163L818 163L818 187L900 187L900 109L900 0L900 0L818 0L818 0L736 0L736 0L655 0L655 0L573 0L573 0L491 0L491 0L409 0L409 0L327 0L327 0L245 0L245 0L164 0L164 0L82 0L82 0L0 0Z" fill="#ffffff"></path><path d="M0 235L82 235L82 151L164 151L164 211L245 211L245 301L327 301L327 259L409 259L409 265L491 265L491 187L573 187L573 211L655 211L655 187L736 187L736 259L818 259L818 271L900 271L900 169L900 107L900 185L818 185L818 161L736 161L736 149L655 149L655 137L573 137L573 143L491 143L491 227L409 227L409 179L327 179L327 221L245 221L245 161L164 161L164 113L82 113L82 161L0 161Z" fill="#e0edcc"></path><path d="M0 313L82 313L82 301L164 301L164 325L245 325L245 415L327 415L327 391L409 391L409 415L491 415L491 307L573 307L573 355L655 355L655 349L736 349L736 397L818 397L818 421L900 421L900 259L900 167L900 269L818 269L818 257L736 257L736 185L655 185L655 209L573 209L573 185L491 185L491 263L409 263L409 257L327 257L327 299L245 299L245 209L164 209L164 149L82 149L82 233L0 233Z" fill="#c0db9a"></path><path d="M0 535L82 535L82 493L164 493L164 499L245 499L245 541L327 541L327 547L409 547L409 487L491 487L491 469L573 469L573 547L655 547L655 559L736 559L736 529L818 529L818 541L900 541L900 481L900 257L900 419L818 419L818 395L736 395L736 347L655 347L655 353L573 353L573 305L491 305L491 413L409 413L409 389L327 389L327 413L245 413L245 323L164 323L164 299L82 299L82 311L0 311Z" fill="#9ec968"></path><path d="M0 601L82 601L82 601L164 601L164 601L245 601L245 601L327 601L327 601L409 601L409 601L491 601L491 601L573 601L573 601L655 601L655 601L736 601L736 601L818 601L818 601L900 601L900 601L900 479L900 539L818 539L818 527L736 527L736 557L655 557L655 545L573 545L573 467L491 467L491 485L409 485L409 545L327 545L327 539L245 539L245 497L164 497L164 491L82 491L82 533L0 533Z" fill="#7ab730"></path></svg>