<svg id="visual" viewBox="0 0 900 600" width="900" height="600" xmlns="http://www.w3.org/2000/svg" xmlns:xlink="http://www.w3.org/1999/xlink" version="1.1"><rect x="0" y="0" width="900" height="600" fill="#FFFFFF"></rect><path d="M651 0L589.8 16.7C528.7 33.3 406.3 66.7 347.3 100C288.3 133.3 292.7 166.7 330.8 200C369 233.3 441 266.7 490.2 300C539.3 333.3 565.7 366.7 549.5 400C533.3 433.3 474.7 466.7 444.7 500C414.7 533.3 413.3 566.7 412.7 583.3L412 600L0 600L0 583.3C0 566.7 0 533.3 0 500C0 466.7 0 433.3 0 400C0 366.7 0 333.3 0 300C0 266.7 0 233.3 0 200C0 166.7 0 133.3 0 100C0 66.7 0 33.3 0 16.7L0 0Z" fill="#7AB730" stroke-linecap="round" stroke-linejoin="miter"></path></svg>